<?xml version="1.0" encoding="UTF-8" standalone="no"?>
<!DOCTYPE svg PUBLIC "-//W3C//DTD SVG 1.1//EN"
 "http://www.w3.org/Graphics/SVG/1.1/DTD/svg11.dtd">
<!-- Generated by graphviz version 7.1.0 (0)
 -->
<!-- Pages: 1 -->
<svg width="454pt" height="465pt"
 viewBox="0.00 0.00 454.00 465.00" xmlns="http://www.w3.org/2000/svg" xmlns:xlink="http://www.w3.org/1999/xlink">
<g id="graph0" class="graph" transform="scale(1 1) rotate(0) translate(4 461)">
<polygon fill="white" stroke="none" points="-4,4 -4,-461 450,-461 450,4 -4,4"/>
<!-- _IO_old_init:/usr/lib64/libc.so.6 -->
<g id="node1" class="node">
<title>_IO_old_init:/usr/lib64/libc.so.6</title>
<polygon fill="#0d3b80" stroke="#0d3b80" points="120.5,-214 52.5,-214 52.5,-162 120.5,-162 120.5,-214"/>
<text text-anchor="middle" x="86.5" y="-202" font-family="Arial" font-size="10.00" fill="#ffffff">libc.so.6</text>
<text text-anchor="middle" x="86.5" y="-191" font-family="Arial" font-size="10.00" fill="#ffffff">_IO_old_init</text>
<text text-anchor="middle" x="86.5" y="-180" font-family="Arial" font-size="10.00" fill="#ffffff">10.00%</text>
<text text-anchor="middle" x="86.5" y="-169" font-family="Arial" font-size="10.00" fill="#ffffff">(10.00%)</text>
</g>
<!-- __isoc99_sscanf:/usr/lib64/libc.so.6 -->
<g id="node2" class="node">
<title>__isoc99_sscanf:/usr/lib64/libc.so.6</title>
<polygon fill="#0d3b80" stroke="#0d3b80" points="131.5,-295 41.5,-295 41.5,-243 131.5,-243 131.5,-295"/>
<text text-anchor="middle" x="86.5" y="-283" font-family="Arial" font-size="10.00" fill="#ffffff">libc.so.6</text>
<text text-anchor="middle" x="86.5" y="-272" font-family="Arial" font-size="10.00" fill="#ffffff">__isoc99_sscanf</text>
<text text-anchor="middle" x="86.5" y="-261" font-family="Arial" font-size="10.00" fill="#ffffff">10.00%</text>
<text text-anchor="middle" x="86.5" y="-250" font-family="Arial" font-size="10.00" fill="#ffffff">(0.00%)</text>
</g>
<!-- __isoc99_sscanf:/usr/lib64/libc.so.6&#45;&gt;_IO_old_init:/usr/lib64/libc.so.6 -->
<g id="edge1" class="edge">
<title>__isoc99_sscanf:/usr/lib64/libc.so.6&#45;&gt;_IO_old_init:/usr/lib64/libc.so.6</title>
<path fill="none" stroke="#0d3b80" stroke-width="0.5" d="M86.5,-242.57C86.5,-234.82 86.5,-226.23 86.5,-218.25"/>
<polygon fill="#0d3b80" stroke="#0d3b80" stroke-width="0.5" points="87.73,-218.64 86.5,-215.14 85.28,-218.64 87.73,-218.64"/>
<text text-anchor="middle" x="103.5" y="-226" font-family="Arial" font-size="10.00" fill="#0d3b80">10.00%</text>
</g>
<!-- _dl_lookup_symbol_x:/usr/lib64/ld&#45;linux&#45;x86&#45;64.so.2 -->
<g id="node3" class="node">
<title>_dl_lookup_symbol_x:/usr/lib64/ld&#45;linux&#45;x86&#45;64.so.2</title>
<polygon fill="#0d3b80" stroke="#0d3b80" points="261.5,-52 151.5,-52 151.5,0 261.5,0 261.5,-52"/>
<text text-anchor="middle" x="206.5" y="-40" font-family="Arial" font-size="10.00" fill="#ffffff">ld&#45;linux&#45;x86&#45;64.so.2</text>
<text text-anchor="middle" x="206.5" y="-29" font-family="Arial" font-size="10.00" fill="#ffffff">_dl_lookup_symbol_x</text>
<text text-anchor="middle" x="206.5" y="-18" font-family="Arial" font-size="10.00" fill="#ffffff">10.00%</text>
<text text-anchor="middle" x="206.5" y="-7" font-family="Arial" font-size="10.00" fill="#ffffff">(10.00%)</text>
</g>
<!-- _dl_relocate_object:/usr/lib64/ld&#45;linux&#45;x86&#45;64.so.2 -->
<g id="node4" class="node">
<title>_dl_relocate_object:/usr/lib64/ld&#45;linux&#45;x86&#45;64.so.2</title>
<polygon fill="#0d3b80" stroke="#0d3b80" points="257,-133 156,-133 156,-81 257,-81 257,-133"/>
<text text-anchor="middle" x="206.5" y="-121" font-family="Arial" font-size="10.00" fill="#ffffff">ld&#45;linux&#45;x86&#45;64.so.2</text>
<text text-anchor="middle" x="206.5" y="-110" font-family="Arial" font-size="10.00" fill="#ffffff">_dl_relocate_object</text>
<text text-anchor="middle" x="206.5" y="-99" font-family="Arial" font-size="10.00" fill="#ffffff">10.00%</text>
<text text-anchor="middle" x="206.5" y="-88" font-family="Arial" font-size="10.00" fill="#ffffff">(0.00%)</text>
</g>
<!-- _dl_relocate_object:/usr/lib64/ld&#45;linux&#45;x86&#45;64.so.2&#45;&gt;_dl_lookup_symbol_x:/usr/lib64/ld&#45;linux&#45;x86&#45;64.so.2 -->
<g id="edge2" class="edge">
<title>_dl_relocate_object:/usr/lib64/ld&#45;linux&#45;x86&#45;64.so.2&#45;&gt;_dl_lookup_symbol_x:/usr/lib64/ld&#45;linux&#45;x86&#45;64.so.2</title>
<path fill="none" stroke="#0d3b80" stroke-width="0.5" d="M206.5,-80.57C206.5,-72.82 206.5,-64.23 206.5,-56.25"/>
<polygon fill="#0d3b80" stroke="#0d3b80" stroke-width="0.5" points="207.73,-56.64 206.5,-53.14 205.28,-56.64 207.73,-56.64"/>
<text text-anchor="middle" x="223.5" y="-64" font-family="Arial" font-size="10.00" fill="#0d3b80">10.00%</text>
</g>
<!-- _dl_start:/usr/lib64/ld&#45;linux&#45;x86&#45;64.so.2 -->
<g id="node5" class="node">
<title>_dl_start:/usr/lib64/ld&#45;linux&#45;x86&#45;64.so.2</title>
<polygon fill="#0c9a7e" stroke="#0c9a7e" points="336,-376 235,-376 235,-324 336,-324 336,-376"/>
<text text-anchor="middle" x="285.5" y="-364" font-family="Arial" font-size="10.00" fill="#ffffff">ld&#45;linux&#45;x86&#45;64.so.2</text>
<text text-anchor="middle" x="285.5" y="-353" font-family="Arial" font-size="10.00" fill="#ffffff">_dl_start</text>
<text text-anchor="middle" x="285.5" y="-342" font-family="Arial" font-size="10.00" fill="#ffffff">30.00%</text>
<text text-anchor="middle" x="285.5" y="-331" font-family="Arial" font-size="10.00" fill="#ffffff">(10.00%)</text>
</g>
<!-- _dl_sysdep_start:/usr/lib64/ld&#45;linux&#45;x86&#45;64.so.2 -->
<g id="node6" class="node">
<title>_dl_sysdep_start:/usr/lib64/ld&#45;linux&#45;x86&#45;64.so.2</title>
<polygon fill="#0c738d" stroke="#0c738d" points="336,-295 235,-295 235,-243 336,-243 336,-295"/>
<text text-anchor="middle" x="285.5" y="-283" font-family="Arial" font-size="10.00" fill="#ffffff">ld&#45;linux&#45;x86&#45;64.so.2</text>
<text text-anchor="middle" x="285.5" y="-272" font-family="Arial" font-size="10.00" fill="#ffffff">_dl_sysdep_start</text>
<text text-anchor="middle" x="285.5" y="-261" font-family="Arial" font-size="10.00" fill="#ffffff">20.00%</text>
<text text-anchor="middle" x="285.5" y="-250" font-family="Arial" font-size="10.00" fill="#ffffff">(0.00%)</text>
</g>
<!-- _dl_start:/usr/lib64/ld&#45;linux&#45;x86&#45;64.so.2&#45;&gt;_dl_sysdep_start:/usr/lib64/ld&#45;linux&#45;x86&#45;64.so.2 -->
<g id="edge3" class="edge">
<title>_dl_start:/usr/lib64/ld&#45;linux&#45;x86&#45;64.so.2&#45;&gt;_dl_sysdep_start:/usr/lib64/ld&#45;linux&#45;x86&#45;64.so.2</title>
<path fill="none" stroke="#0c738d" stroke-width="0.8" d="M285.5,-323.57C285.5,-316.38 285.5,-308.48 285.5,-301"/>
<polygon fill="#0c738d" stroke="#0c738d" stroke-width="0.8" points="287.08,-301.09 285.5,-296.59 283.93,-301.09 287.08,-301.09"/>
<text text-anchor="middle" x="302.5" y="-307" font-family="Arial" font-size="10.00" fill="#0c738d">20.00%</text>
</g>
<!-- dl_main:/usr/lib64/ld&#45;linux&#45;x86&#45;64.so.2 -->
<g id="node8" class="node">
<title>dl_main:/usr/lib64/ld&#45;linux&#45;x86&#45;64.so.2</title>
<polygon fill="#0d3b80" stroke="#0d3b80" points="257,-214 156,-214 156,-162 257,-162 257,-214"/>
<text text-anchor="middle" x="206.5" y="-202" font-family="Arial" font-size="10.00" fill="#ffffff">ld&#45;linux&#45;x86&#45;64.so.2</text>
<text text-anchor="middle" x="206.5" y="-191" font-family="Arial" font-size="10.00" fill="#ffffff">dl_main</text>
<text text-anchor="middle" x="206.5" y="-180" font-family="Arial" font-size="10.00" fill="#ffffff">10.00%</text>
<text text-anchor="middle" x="206.5" y="-169" font-family="Arial" font-size="10.00" fill="#ffffff">(0.00%)</text>
</g>
<!-- _dl_sysdep_start:/usr/lib64/ld&#45;linux&#45;x86&#45;64.so.2&#45;&gt;dl_main:/usr/lib64/ld&#45;linux&#45;x86&#45;64.so.2 -->
<g id="edge5" class="edge">
<title>_dl_sysdep_start:/usr/lib64/ld&#45;linux&#45;x86&#45;64.so.2&#45;&gt;dl_main:/usr/lib64/ld&#45;linux&#45;x86&#45;64.so.2</title>
<path fill="none" stroke="#0d3b80" stroke-width="0.5" d="M260.07,-242.57C252.03,-234.53 243.11,-225.61 234.88,-217.38"/>
<polygon fill="#0d3b80" stroke="#0d3b80" stroke-width="0.5" points="235.76,-216.53 232.42,-214.92 234.03,-218.26 235.76,-216.53"/>
<text text-anchor="middle" x="268.5" y="-226" font-family="Arial" font-size="10.00" fill="#0d3b80">10.00%</text>
</g>
<!-- init_cpu_features.constprop.0:/usr/lib64/ld&#45;linux&#45;x86&#45;64.so.2 -->
<g id="node9" class="node">
<title>init_cpu_features.constprop.0:/usr/lib64/ld&#45;linux&#45;x86&#45;64.so.2</title>
<polygon fill="#0d3b80" stroke="#0d3b80" points="411,-214 266,-214 266,-162 411,-162 411,-214"/>
<text text-anchor="middle" x="338.5" y="-202" font-family="Arial" font-size="10.00" fill="#ffffff">ld&#45;linux&#45;x86&#45;64.so.2</text>
<text text-anchor="middle" x="338.5" y="-191" font-family="Arial" font-size="10.00" fill="#ffffff">init_cpu_features.constprop.0</text>
<text text-anchor="middle" x="338.5" y="-180" font-family="Arial" font-size="10.00" fill="#ffffff">10.00%</text>
<text text-anchor="middle" x="338.5" y="-169" font-family="Arial" font-size="10.00" fill="#ffffff">(10.00%)</text>
</g>
<!-- _dl_sysdep_start:/usr/lib64/ld&#45;linux&#45;x86&#45;64.so.2&#45;&gt;init_cpu_features.constprop.0:/usr/lib64/ld&#45;linux&#45;x86&#45;64.so.2 -->
<g id="edge6" class="edge">
<title>_dl_sysdep_start:/usr/lib64/ld&#45;linux&#45;x86&#45;64.so.2&#45;&gt;init_cpu_features.constprop.0:/usr/lib64/ld&#45;linux&#45;x86&#45;64.so.2</title>
<path fill="none" stroke="#0d3b80" stroke-width="0.5" d="M302.56,-242.57C307.86,-234.68 313.73,-225.92 319.17,-217.81"/>
<polygon fill="#0d3b80" stroke="#0d3b80" stroke-width="0.5" points="320.12,-218.6 321.05,-215.01 318.08,-217.24 320.12,-218.6"/>
<text text-anchor="middle" x="331.5" y="-226" font-family="Arial" font-size="10.00" fill="#0d3b80">10.00%</text>
</g>
<!-- _dl_start_user:/usr/lib64/ld&#45;linux&#45;x86&#45;64.so.2 -->
<g id="node7" class="node">
<title>_dl_start_user:/usr/lib64/ld&#45;linux&#45;x86&#45;64.so.2</title>
<polygon fill="#0c9a7e" stroke="#0c9a7e" points="336,-457 235,-457 235,-405 336,-405 336,-457"/>
<text text-anchor="middle" x="285.5" y="-445" font-family="Arial" font-size="10.00" fill="#ffffff">ld&#45;linux&#45;x86&#45;64.so.2</text>
<text text-anchor="middle" x="285.5" y="-434" font-family="Arial" font-size="10.00" fill="#ffffff">_dl_start_user</text>
<text text-anchor="middle" x="285.5" y="-423" font-family="Arial" font-size="10.00" fill="#ffffff">30.00%</text>
<text text-anchor="middle" x="285.5" y="-412" font-family="Arial" font-size="10.00" fill="#ffffff">(0.00%)</text>
</g>
<!-- _dl_start_user:/usr/lib64/ld&#45;linux&#45;x86&#45;64.so.2&#45;&gt;_dl_start:/usr/lib64/ld&#45;linux&#45;x86&#45;64.so.2 -->
<g id="edge4" class="edge">
<title>_dl_start_user:/usr/lib64/ld&#45;linux&#45;x86&#45;64.so.2&#45;&gt;_dl_start:/usr/lib64/ld&#45;linux&#45;x86&#45;64.so.2</title>
<path fill="none" stroke="#0c9a7e" stroke-width="1.2" d="M285.5,-404.57C285.5,-397.8 285.5,-390.4 285.5,-383.32"/>
<polygon fill="#0c9a7e" stroke="#0c9a7e" stroke-width="1.2" points="287.43,-383.7 285.5,-378.2 283.58,-383.7 287.43,-383.7"/>
<text text-anchor="middle" x="302.5" y="-388" font-family="Arial" font-size="10.00" fill="#0c9a7e">30.00%</text>
</g>
<!-- dl_main:/usr/lib64/ld&#45;linux&#45;x86&#45;64.so.2&#45;&gt;_dl_relocate_object:/usr/lib64/ld&#45;linux&#45;x86&#45;64.so.2 -->
<g id="edge7" class="edge">
<title>dl_main:/usr/lib64/ld&#45;linux&#45;x86&#45;64.so.2&#45;&gt;_dl_relocate_object:/usr/lib64/ld&#45;linux&#45;x86&#45;64.so.2</title>
<path fill="none" stroke="#0d3b80" stroke-width="0.5" d="M206.5,-161.57C206.5,-153.82 206.5,-145.23 206.5,-137.25"/>
<polygon fill="#0d3b80" stroke="#0d3b80" stroke-width="0.5" points="207.73,-137.64 206.5,-134.14 205.28,-137.64 207.73,-137.64"/>
<text text-anchor="middle" x="223.5" y="-145" font-family="Arial" font-size="10.00" fill="#0d3b80">10.00%</text>
</g>
<!-- _start:/usr/lib64/ld&#45;linux&#45;x86&#45;64.so.2 -->
<g id="node10" class="node">
<title>_start:/usr/lib64/ld&#45;linux&#45;x86&#45;64.so.2</title>
<polygon fill="#53c408" stroke="#53c408" points="446,-457 345,-457 345,-405 446,-405 446,-457"/>
<text text-anchor="middle" x="395.5" y="-445" font-family="Arial" font-size="10.00" fill="#ffffff">ld&#45;linux&#45;x86&#45;64.so.2</text>
<text text-anchor="middle" x="395.5" y="-434" font-family="Arial" font-size="10.00" fill="#ffffff">_start</text>
<text text-anchor="middle" x="395.5" y="-423" font-family="Arial" font-size="10.00" fill="#ffffff">60.00%</text>
<text text-anchor="middle" x="395.5" y="-412" font-family="Arial" font-size="10.00" fill="#ffffff">(60.00%)</text>
</g>
<!-- pthread_getattr_np@@GLIBC_2.32:/usr/lib64/libc.so.6 -->
<g id="node11" class="node">
<title>pthread_getattr_np@@GLIBC_2.32:/usr/lib64/libc.so.6</title>
<polygon fill="#0d3b80" stroke="#0d3b80" points="173,-376 0,-376 0,-324 173,-324 173,-376"/>
<text text-anchor="middle" x="86.5" y="-364" font-family="Arial" font-size="10.00" fill="#ffffff">libc.so.6</text>
<text text-anchor="middle" x="86.5" y="-353" font-family="Arial" font-size="10.00" fill="#ffffff">pthread_getattr_np@@GLIBC_2.32</text>
<text text-anchor="middle" x="86.5" y="-342" font-family="Arial" font-size="10.00" fill="#ffffff">10.00%</text>
<text text-anchor="middle" x="86.5" y="-331" font-family="Arial" font-size="10.00" fill="#ffffff">(0.00%)</text>
</g>
<!-- pthread_getattr_np@@GLIBC_2.32:/usr/lib64/libc.so.6&#45;&gt;__isoc99_sscanf:/usr/lib64/libc.so.6 -->
<g id="edge8" class="edge">
<title>pthread_getattr_np@@GLIBC_2.32:/usr/lib64/libc.so.6&#45;&gt;__isoc99_sscanf:/usr/lib64/libc.so.6</title>
<path fill="none" stroke="#0d3b80" stroke-width="0.5" d="M86.5,-323.57C86.5,-315.82 86.5,-307.23 86.5,-299.25"/>
<polygon fill="#0d3b80" stroke="#0d3b80" stroke-width="0.5" points="87.73,-299.64 86.5,-296.14 85.28,-299.64 87.73,-299.64"/>
<text text-anchor="middle" x="103.5" y="-307" font-family="Arial" font-size="10.00" fill="#0d3b80">10.00%</text>
</g>
<!-- std::rt::lang_start_internal:/home/dany98/Working/projectsMini/Cli&#45;Apps/rs_randomguess/target/debug/rs_randomguess -->
<g id="node12" class="node">
<title>std::rt::lang_start_internal:/home/dany98/Working/projectsMini/Cli&#45;Apps/rs_randomguess/target/debug/rs_randomguess</title>
<polygon fill="#0d3b80" stroke="#0d3b80" points="150.5,-457 22.5,-457 22.5,-405 150.5,-405 150.5,-457"/>
<text text-anchor="middle" x="86.5" y="-445" font-family="Arial" font-size="10.00" fill="#ffffff">rs_randomguess</text>
<text text-anchor="middle" x="86.5" y="-434" font-family="Arial" font-size="10.00" fill="#ffffff">std::rt::lang_start_internal</text>
<text text-anchor="middle" x="86.5" y="-423" font-family="Arial" font-size="10.00" fill="#ffffff">10.00%</text>
<text text-anchor="middle" x="86.5" y="-412" font-family="Arial" font-size="10.00" fill="#ffffff">(0.00%)</text>
</g>
<!-- std::rt::lang_start_internal:/home/dany98/Working/projectsMini/Cli&#45;Apps/rs_randomguess/target/debug/rs_randomguess&#45;&gt;pthread_getattr_np@@GLIBC_2.32:/usr/lib64/libc.so.6 -->
<g id="edge9" class="edge">
<title>std::rt::lang_start_internal:/home/dany98/Working/projectsMini/Cli&#45;Apps/rs_randomguess/target/debug/rs_randomguess&#45;&gt;pthread_getattr_np@@GLIBC_2.32:/usr/lib64/libc.so.6</title>
<path fill="none" stroke="#0d3b80" stroke-width="0.5" d="M86.5,-404.57C86.5,-396.82 86.5,-388.23 86.5,-380.25"/>
<polygon fill="#0d3b80" stroke="#0d3b80" stroke-width="0.5" points="87.73,-380.64 86.5,-377.14 85.28,-380.64 87.73,-380.64"/>
<text text-anchor="middle" x="103.5" y="-388" font-family="Arial" font-size="10.00" fill="#0d3b80">10.00%</text>
</g>
</g>
</svg>
